<svg width="175" height="175" viewBox="0 0 175 175" fill="none" xmlns="http://www.w3.org/2000/svg">
<path d="M102.147 41.266C104.014 41.266 105.768 41.9963 107.087 43.3233C108.407 44.6927 109.136 46.4589 109.137 48.2887C109.138 50.1185 108.41 51.8852 107.091 53.2557L73.5279 86.9893L107.088 120.728C108.407 122.097 109.136 123.863 109.137 125.693C109.137 127.522 108.41 129.289 107.091 130.659C105.771 131.985 104.016 132.713 102.147 132.713C101.213 132.71 100.291 132.525 99.4396 132.172C98.5885 131.819 97.8278 131.305 97.2072 130.664L59.0369 92.2975C57.7188 90.7946 57 88.9222 57 86.9917C57 85.0611 57.7188 83.1888 59.0369 81.6858L97.2061 43.3248C98.5258 41.9963 100.28 41.266 102.147 41.266Z" fill="black"/>
</svg>
