<svg width="175" height="175" viewBox="0 0 175 175" fill="none" xmlns="http://www.w3.org/2000/svg">
<path d="M72.853 133.734C70.9861 133.734 69.232 133.004 67.9134 131.677C66.5933 130.307 65.8641 128.541 65.8633 126.711C65.8625 124.882 66.5901 123.115 67.9089 121.744L101.472 88.0107L67.9122 54.2723C66.5926 52.9027 65.8639 51.1367 65.8633 49.3072C65.8627 47.4777 66.5903 45.7112 67.9089 44.341C69.2287 43.0151 70.984 42.2869 72.853 42.2869C73.7868 42.2905 74.7093 42.4748 75.5604 42.8279C76.4115 43.181 77.1722 43.695 77.7928 44.3363L115.963 82.7025C117.281 84.2054 118 86.0778 118 88.0083C118 89.9389 117.281 91.8113 115.963 93.3142L77.7939 131.675C76.4742 133.004 74.7199 133.734 72.853 133.734Z" fill="black"/>
</svg>
